HIERARCHY
ROOT Hips
{
	OFFSET 0.000000 0.000000 0.000000
	CHANNELS 6 Xposition Yposition Zposition Xrotation Yrotation Zrotation
	JOINT LeftUpLeg_virtual
	{
		OFFSET 0.000000 0.000000 0.000000
		CHANNELS 3 Xrotation Yrotation Zrotation
		JOINT LeftUpLeg
		{
			OFFSET 11.394100 -6.187798 -0.413800
			CHANNELS 3 Xrotation Yrotation Zrotation
			JOINT LeftLeg
			{
				OFFSET 0.430247 -32.302673 3.732800
				CHANNELS 3 Xrotation Yrotation Zrotation
				JOINT LeftFoot
				{
					OFFSET -0.430247 -48.264931 -6.423300
					CHANNELS 3 Xrotation Yrotation Zrotation
					JOINT LeftToeBase
					{
						OFFSET 4.230900 -16.068199 23.438400
						CHANNELS 3 Xrotation Yrotation Zrotation
						JOINT LeftToe_End
						{
							OFFSET 4.510700 0.695400 19.974600
							CHANNELS 3 Xrotation Yrotation Zrotation
							End Site
							{
								OFFSET 0 0 0
							}
						}
					}
				}
			}
		}
	}
	JOINT RightUpLeg_virtual
	{
		OFFSET 0.000000 0.000000 0.000000
		CHANNELS 3 Xrotation Yrotation Zrotation
		JOINT RightUpLeg
		{
			OFFSET -11.333700 -6.187798 -0.413800
			CHANNELS 3 Xrotation Yrotation Zrotation
			JOINT RightLeg
			{
				OFFSET -0.430392 -32.302628 3.733000
				CHANNELS 3 Xrotation Yrotation Zrotation
				JOINT RightFoot
				{
					OFFSET 0.430392 -48.264973 -6.423500
					CHANNELS 3 Xrotation Yrotation Zrotation
					JOINT RightToeBase
					{
						OFFSET -4.230900 -16.068199 23.438400
						CHANNELS 3 Xrotation Yrotation Zrotation
						JOINT RightToe_End
						{
							OFFSET -4.510700 0.695400 19.974600
							CHANNELS 3 Xrotation Yrotation Zrotation
							End Site
							{
								OFFSET 0 0 0
							}
						}
					}
				}
			}
		}
	}
	JOINT Spine_virtual
	{
		OFFSET 0.000000 0.000000 0.000000
		CHANNELS 3 Xrotation Yrotation Zrotation
		JOINT Spine
		{
			OFFSET -0.002400 12.777504 0.315300
			CHANNELS 3 Xrotation Yrotation Zrotation
			JOINT Spine1
			{
				OFFSET -0.002067 5.816869 0.032633
				CHANNELS 3 Xrotation Yrotation Zrotation
				JOINT Spine1_split
				{
					OFFSET -0.002067 5.816869 0.032633
					CHANNELS 3 Xrotation Yrotation Zrotation
					JOINT Spine2
					{
						OFFSET -0.002067 5.816869 0.032633
						CHANNELS 3 Xrotation Yrotation Zrotation
						JOINT Neck_virtual
						{
							OFFSET 0.000000 0.000000 0.000000
							CHANNELS 3 Xrotation Yrotation Zrotation
							JOINT Neck
							{
								OFFSET -0.003700 21.199493 -0.826900
								CHANNELS 3 Xrotation Yrotation Zrotation
								JOINT Head
								{
									OFFSET 0.000000 20.442200 4.834800
									CHANNELS 3 Xrotation Yrotation Zrotation
									JOINT HeadTop_End
									{
										OFFSET 0.000000 34.668396 4.968400
										CHANNELS 3 Xrotation Yrotation Zrotation
										End Site
										{
											OFFSET 0 0 0
										}
									}
								}
							}
						}
						JOINT LeftShoulder_virtual
						{
							OFFSET 0.000000 0.000000 0.000000
							CHANNELS 3 Xrotation Yrotation Zrotation
							JOINT LeftShoulder
							{
								OFFSET 3.288150 8.794197 -1.372250
								CHANNELS 3 Xrotation Yrotation Zrotation
								JOINT LeftShoulder_split
								{
									OFFSET 3.288150 8.794197 -1.372250
									CHANNELS 3 Xrotation Yrotation Zrotation
									JOINT LeftArm
									{
										OFFSET 11.953299 -2.279007 -0.146200
										CHANNELS 3 Xrotation Yrotation Zrotation
										JOINT LeftForeArm
										{
											OFFSET 18.448900 0.000000 0.000000
											CHANNELS 3 Xrotation Yrotation Zrotation
											JOINT LeftHand
											{
												OFFSET 29.527798 0.000000 0.000000
												CHANNELS 3 Xrotation Yrotation Zrotation
												End Site
												{
													OFFSET 0 0 0
												}
											}
										}
									}
								}
							}
						}
						JOINT RightShoulder_virtual
						{
							OFFSET 0.000000 0.000000 0.000000
							CHANNELS 3 Xrotation Yrotation Zrotation
							JOINT RightShoulder
							{
								OFFSET -3.249400 8.794197 -1.372250
								CHANNELS 3 Xrotation Yrotation Zrotation
								JOINT RightShoulder_split
								{
									OFFSET -3.249400 8.794197 -1.372250
									CHANNELS 3 Xrotation Yrotation Zrotation
									JOINT RightArm
									{
										OFFSET -11.953299 -2.279007 -0.146200
										CHANNELS 3 Xrotation Yrotation Zrotation
										JOINT RightForeArm
										{
											OFFSET -18.448900 0.000000 0.000000
											CHANNELS 3 Xrotation Yrotation Zrotation
											JOINT RightHand
											{
												OFFSET -29.527802 0.000000 0.000000
												CHANNELS 3 Xrotation Yrotation Zrotation
												End Site
												{
													OFFSET 0 0 0
												}
											}
										}
									}
								}
							}
						}
					}
				}
			}
		}
	}
}
MOTION
Frames: 6
Frame Time: 0.03333333
4.309291 146.013306 10.301509 0.000000 0.000000 0.000000 10.811727 -31.186944 5.793670 -91.235065 -5.556622 25.672234 68.330312 -8.915314 6.102139 21.932849 5.609610 -12.112196 -8.546570 2.955633 -2.728695 0.000000 0.000000 0.000000 10.640610 -31.869273 5.459100 -137.493620 -13.836836 -13.272342 99.880247 12.329896 -5.387456 34.208313 17.015613 29.614266 4.232284 -50.030193 -77.872455 0.000000 0.000000 0.000000 12.737203 -25.129991 6.260414 22.740012 -0.185145 -10.745373 12.945118 -3.205926 -0.170419 0.222316 0.219954 0.035565 0.000000 0.000000 0.000000 14.115941 -1.394952 -0.744914 2.056272 -1.156562 -5.491969 -20.248147 39.114847 -16.449599 0.000000 0.000000 0.000000 14.353086 -2.888427 -2.084302 13.552403 -5.673814 -2.295375 1.681370 -2.347344 -2.163039 -68.744187 -3.813038 9.644034 49.771373 -2.503403 25.733385 0.000000 0.000000 0.000000 18.977576 -1.416608 -0.704525 3.205836 16.766513 -6.729920 8.616730 6.961120 1.535164 -42.807934 -10.018753 -4.872455 -68.413203 49.073837 43.146483 0.000000 0.000000 0.000000 
4.322597 146.018463 10.390129 0.000000 0.000000 0.000000 10.845692 -31.110323 5.761252 -91.340523 -5.519575 25.721014 68.331357 -8.904077 6.077419 22.076360 5.609970 -12.124983 -8.592357 2.962081 -2.739833 0.000000 0.000000 0.000000 10.660298 -31.703368 5.389468 -137.393777 -13.814161 -13.109018 99.942586 12.287769 -5.428933 34.151424 17.027291 29.674556 4.247151 -49.917707 -77.736589 0.000000 0.000000 0.000000 12.746246 -24.943999 6.166691 22.780773 -0.250136 -10.768382 13.013908 -3.257141 -0.130020 0.232600 0.210607 0.024804 0.000000 0.000000 0.000000 14.201552 -1.423343 -0.748457 2.017629 -1.096504 -5.512004 -20.484712 39.468409 -16.223431 0.000000 0.000000 0.000000 14.423037 -2.928675 -2.007554 13.758161 -6.075094 -1.376037 1.692941 -2.342482 -1.676983 -69.865431 -4.904856 9.878822 49.337731 -2.132911 25.396768 0.000000 0.000000 0.000000 19.018686 -1.473203 -0.667462 3.293188 16.664647 -7.265097 8.848260 6.768164 0.948825 -43.261582 -9.840073 -5.096045 -68.599326 49.349640 43.272370 0.000000 0.000000 0.000000 
4.339647 146.058868 10.505647 0.000000 0.000000 0.000000 10.856195 -30.885982 5.680700 -91.613321 -5.558112 25.753551 68.413367 -8.953795 6.042567 22.354830 5.581024 -12.082318 -8.585559 2.973188 -2.756185 0.000000 0.000000 0.000000 10.656379 -31.379241 5.274682 -137.549546 -13.727528 -12.929576 100.160927 12.192036 -5.455030 34.323497 17.002386 29.693301 3.869047 -49.573277 -77.618195 0.000000 0.000000 0.000000 12.745868 -24.636660 6.071381 22.897465 -0.316125 -10.824188 13.098928 -3.346723 -0.119455 0.237877 0.200935 0.020535 0.000000 0.000000 0.000000 14.324563 -1.484697 -0.775411 1.995212 -1.004064 -5.506264 -20.723164 39.986745 -15.907990 0.000000 0.000000 0.000000 14.525867 -2.991877 -1.942664 14.001044 -6.585782 0.060344 1.811337 -2.238741 -1.610714 -70.964798 -6.973957 10.421461 48.694089 -1.497290 24.762458 0.000000 0.000000 0.000000 19.057280 -1.567135 -0.656988 3.544679 16.479954 -8.448183 8.989361 6.643453 0.949071 -44.079319 -9.754301 -5.410049 -68.856312 49.699175 43.544413 0.000000 0.000000 0.000000 
4.366202 146.137787 10.643279 0.000000 0.000000 0.000000 10.826121 -30.550159 5.541504 -91.970089 -5.670488 25.752952 68.513996 -9.057598 6.006987 22.703660 5.535718 -11.999077 -8.517188 2.988959 -2.780166 0.000000 0.000000 0.000000 10.623634 -30.988609 5.122093 -137.848039 -13.634086 -12.736506 100.432925 12.031502 -5.440786 34.647374 16.895084 29.650053 3.081691 -49.023683 -77.563615 0.000000 0.000000 0.000000 12.736393 -24.279693 5.974453 23.041711 -0.365228 -10.888020 13.188614 -3.457907 -0.138287 0.229740 0.199275 0.026883 0.000000 0.000000 0.000000 14.467128 -1.568128 -0.825535 1.998450 -0.880219 -5.470662 -20.905052 40.652849 -15.552064 0.000000 0.000000 0.000000 14.658163 -3.074646 -1.901846 14.262109 -7.161020 1.744493 2.005692 -2.107108 -1.958312 -71.890856 -9.536232 11.001035 47.963627 -0.706760 23.966027 0.000000 0.000000 0.000000 19.105701 -1.679634 -0.679544 3.910399 16.295990 -10.062701 9.115445 6.678506 1.276626 -45.086512 -9.744849 -5.658264 -69.066743 50.021478 43.845057 0.000000 0.000000 0.000000 
4.386886 146.248734 10.796892 0.000000 0.000000 0.000000 10.739696 -30.145969 5.337102 -92.336528 -5.843289 25.714612 68.563351 -9.205387 5.973290 23.066015 5.482584 -11.887350 -8.445176 3.006450 -2.805197 0.000000 0.000000 0.000000 10.539272 -30.595757 4.923670 -138.184180 -13.575130 -12.557756 100.689358 11.801566 -5.359426 35.056130 16.710246 29.561055 2.248065 -48.439746 -77.398064 0.000000 0.000000 0.000000 12.715042 -23.915779 5.858233 23.182808 -0.384058 -10.935362 13.280085 -3.578461 -0.187291 0.218638 0.194622 0.026408 0.000000 0.000000 0.000000 14.608888 -1.666376 -0.889090 2.032771 -0.725184 -5.398420 -20.981711 41.431712 -15.218239 0.000000 0.000000 0.000000 14.822040 -3.172421 -1.882817 14.525659 -7.740737 3.460359 2.290991 -1.946827 -2.368451 -72.577051 -12.249113 11.383284 47.239672 0.102125 23.168470 0.000000 0.000000 0.000000 19.184314 -1.800386 -0.728817 4.339962 16.209576 -11.790734 9.088488 6.725356 1.629082 -46.196896 -9.650991 -5.805931 -69.131063 50.207631 44.061960 0.000000 0.000000 0.000000 
4.395818 146.387634 10.946101 0.000000 0.000000 0.000000 10.605989 -29.763437 5.081989 -92.644665 -6.054217 25.662225 68.572326 -9.387358 5.951117 23.433696 5.425595 -11.767883 -8.411334 3.023727 -2.832847 0.000000 0.000000 0.000000 10.392182 -30.293474 4.684460 -138.452538 -13.586889 -12.418781 100.895343 11.542688 -5.221091 35.464039 16.507387 29.478096 1.643704 -47.939588 -77.002337 0.000000 0.000000 0.000000 12.675164 -23.623667 5.712062 23.301791 -0.366138 -10.951428 13.379645 -3.701961 -0.255837 0.219946 0.200071 0.030944 0.000000 0.000000 0.000000 14.732431 -1.773312 -0.948772 2.069307 -0.537166 -5.284752 -20.925980 42.271296 -14.965277 0.000000 0.000000 0.000000 15.013707 -3.279346 -1.879742 14.758990 -8.293861 4.964179 2.458167 -1.888920 -2.838623 -72.994109 -14.705508 11.573186 46.544099 0.724264 22.493370 0.000000 0.000000 0.000000 19.312725 -1.924209 -0.800668 4.797368 16.300610 -13.369107 8.897173 6.672284 1.955906 -47.239531 -9.326651 -5.774495 -68.986693 50.195477 44.108378 0.000000 0.000000 0.000000 
